<svg width="32" height="32" viewBox="0 0 32 32" fill="none" xmlns="http://www.w3.org/2000/svg">
  <defs>
    <linearGradient id="kindnest-bg" x1="0%" y1="0%" x2="100%" y2="100%">
      <stop offset="0%" style="stop-color:#0f766e;stop-opacity:1" />
      <stop offset="50%" style="stop-color:#14b8a6;stop-opacity:1" />
      <stop offset="100%" style="stop-color:#10b981;stop-opacity:1" />
    </linearGradient>
    <linearGradient id="nest-gradient" x1="0%" y1="0%" x2="100%" y2="100%">
      <stop offset="0%" style="stop-color:#dcfce7;stop-opacity:1" />
      <stop offset="50%" style="stop-color:#bbf7d0;stop-opacity:1" />
      <stop offset="100%" style="stop-color:#86efac;stop-opacity:1" />
    </linearGradient>
    <linearGradient id="heart-gradient" x1="0%" y1="0%" x2="100%" y2="100%">
      <stop offset="0%" style="stop-color:#fb7185;stop-opacity:1" />
      <stop offset="100%" style="stop-color:#f87171;stop-opacity:1" />
    </linearGradient>
    <filter id="glow" x="-20%" y="-20%" width="140%" height="140%">
      <feGaussianBlur stdDeviation="0.5" result="coloredBlur"/>
      <feMerge> 
        <feMergeNode in="coloredBlur"/>
        <feMergeNode in="SourceGraphic"/> 
      </feMerge>
    </filter>
  </defs>
  
  <!-- Background rounded rectangle with KindNest gradient -->
  <rect width="32" height="32" rx="8" fill="url(#kindnest-bg)" />
  
  <!-- Outer nest/leaf shape -->
  <path d="M16 6C12 6 8 9 8 14C8 18 10 22 13 24C14.2 24.7 15.1 25 16 25C16.9 25 17.8 24.7 19 24C22 22 24 18 24 14C24 9 20 6 16 6Z" 
        fill="url(#nest-gradient)" opacity="0.9" filter="url(#glow)"/>
  
  <!-- Inner nest detail -->
  <path d="M16 8C13.5 8 11 10 11 13.5C11 16.5 12.5 19 14.5 20.5C15.2 21 15.6 21.2 16 21.2C16.4 21.2 16.8 21 17.5 20.5C19.5 19 21 16.5 21 13.5C21 10 18.5 8 16 8Z" 
        fill="url(#nest-gradient)" opacity="0.7"/>
  
  <!-- Small heart in center representing care -->
  <path d="M16 12.5C15.6 11.8 14.8 11.5 14 11.5C13.4 11.5 13 12 13 12.5C13 13 13.4 13.5 14 13.5L16 15.5L18 13.5C18.6 13.5 19 13 19 12.5C19 12 18.6 11.5 18 11.5C17.2 11.5 16.4 11.8 16 12.5Z" 
        fill="url(#heart-gradient)" opacity="0.95"/>
  
  <!-- Subtle highlight for depth -->
  <ellipse cx="13" cy="10" rx="2" ry="1.5" fill="rgba(255,255,255,0.3)" opacity="0.8"/>
  
  <!-- Small caring dots around the heart -->
  <circle cx="12" cy="16" r="0.8" fill="rgba(255,255,255,0.6)"/>
  <circle cx="20" cy="16" r="0.8" fill="rgba(255,255,255,0.6)"/>
  <circle cx="16" cy="18" r="0.8" fill="rgba(255,255,255,0.6)"/>
</svg>